/* XPM */
static char * gnome_activity_journal_xpm[] = {
"32 32 380 2",
"  	c None",
". 	c #955F0A",
"+ 	c #8F5902",
"@ 	c #8F5A03",
"# 	c #905B05",
"$ 	c #915C07",
"% 	c #925D08",
"& 	c #925E09",
"* 	c #96620E",
"= 	c #F1CEA3",
"- 	c #EFC294",
"; 	c #EFC498",
"> 	c #F0C59C",
", 	c #F0C69F",
"' 	c #F1C9A4",
") 	c #F2CAA7",
"! 	c #F1CCA9",
"~ 	c #F2CDA9",
"{ 	c #EFC496",
"] 	c #EEC191",
"^ 	c #EDBF8B",
"/ 	c #EDBD86",
"( 	c #ECBA80",
"_ 	c #EBB87A",
": 	c #EAB674",
"< 	c #E9B36E",
"[ 	c #E8B168",
"} 	c #E7AF61",
"| 	c #E6AC5B",
"1 	c #E0A550",
"2 	c #8F5A02",
"3 	c #9E6B1B",
"4 	c #F1CDA3",
"5 	c #F0C69D",
"6 	c #F1C7A2",
"7 	c #F1C9A6",
"8 	c #F2CBAA",
"9 	c #F3CDAD",
"0 	c #F2CEAF",
"a 	c #F3CFAF",
"b 	c #F2CDAA",
"c 	c #F0C49A",
"d 	c #EFC295",
"e 	c #EEC08F",
"f 	c #EDBE89",
"g 	c #ECBB83",
"h 	c #EBB97D",
"i 	c #EAB776",
"j 	c #E9B470",
"k 	c #E8B26A",
"l 	c #E7AF63",
"m 	c #E6AD5D",
"n 	c #E5AB56",
"o 	c #A7772B",
"p 	c #F1CCA3",
"q 	c #F2C9A7",
"r 	c #F2CBAC",
"s 	c #F3CEB2",
"t 	c #F4CFB4",
"u 	c #F3D0B5",
"v 	c #F4D1B4",
"w 	c #F2CCAA",
"x 	c #F0C69E",
"y 	c #EFC398",
"z 	c #EEC192",
"A 	c #ECBC85",
"B 	c #EBBA7F",
"C 	c #EAB778",
"D 	c #EAB572",
"E 	c #E9B26B",
"F 	c #E8B065",
"G 	c #E7AD5E",
"H 	c #E6AB58",
"I 	c #925D06",
"J 	c #B2843D",
"K 	c #F1CBA2",
"L 	c #F1C8A5",
"M 	c #F2CBAB",
"N 	c #F3CDB0",
"O 	c #F4D1B8",
"P 	c #F5D2BB",
"Q 	c #F4D3BA",
"R 	c #F4D2B8",
"S 	c #F1CAA9",
"T 	c #F1C7A0",
"U 	c #EEBF8D",
"V 	c #EBB879",
"W 	c #EAB573",
"X 	c #E9B36C",
"Y 	c #E8B066",
"Z 	c #E7AE5F",
"` 	c #97610B",
" .	c #BB914F",
"..	c #F1CAA0",
"+.	c #F3CFB4",
"@.	c #F4D2BC",
"#.	c #F6D4C1",
"$.	c #F5D4BD",
"%.	c #F4D1B7",
"&.	c #F2CAA8",
"*.	c #F1C7A1",
"=.	c #F0C59B",
"-.	c #EEC08E",
";.	c #EDBD87",
">.	c #ECBB80",
",.	c #EAB673",
"'.	c #E9B36D",
").	c #E6AB59",
"!.	c #A06911",
"~.	c #905902",
"{.	c #C59D62",
"].	c #F0C99E",
"^.	c #F4D1B9",
"/.	c #F5D3BC",
"(.	c #F4D3BB",
"_.	c #F4CFB2",
":.	c #A9711A",
"<.	c #925D05",
"[.	c #CFAB74",
"}.	c #F0C69A",
"|.	c #F2CCAF",
"1.	c #F4D0B4",
"2.	c #F4D2B7",
"3.	c #F1C8A4",
"4.	c #EDBF8C",
"5.	c #EAB97D",
"6.	c #DD9C3B",
"7.	c #D38404",
"8.	c #D28302",
"9.	c #CC8003",
"0.	c #B87404",
"a.	c #935E08",
"b.	c #D7B886",
"c.	c #EFC396",
"d.	c #EFC499",
"e.	c #F1C8A3",
"f.	c #F2CAA9",
"g.	c #F3CEB1",
"h.	c #F3CFB1",
"i.	c #EFC395",
"j.	c #EEC090",
"k.	c #EDBE8A",
"l.	c #DE9D3D",
"m.	c #D99628",
"n.	c #F0D09D",
"o.	c #F9EAD5",
"p.	c #F5DEBB",
"q.	c #ECC484",
"r.	c #E5BB77",
"s.	c #D29F4C",
"t.	c #B77407",
"u.	c #955F0B",
"v.	c #E1C397",
"w.	c #F2CDAB",
"x.	c #F2CBA7",
"y.	c #D78D19",
"z.	c #E6B668",
"A.	c #EFD09D",
"B.	c #F7E8D1",
"C.	c #EFD1A3",
"D.	c #D4A252",
"E.	c #B37715",
"F.	c #945F09",
"G.	c #EACFA4",
"H.	c #EFC397",
"I.	c #F1C8A1",
"J.	c #F1CAA5",
"K.	c #F0C79E",
"L.	c #EDBD88",
"M.	c #D5890F",
"N.	c #E7BB74",
"O.	c #EAC07C",
"P.	c #DDA447",
"Q.	c #DBA143",
"R.	c #B0771A",
"S.	c #955D03",
"T.	c #915B04",
"U.	c #F1D7B0",
"V.	c #F0C497",
"W.	c #F0C69B",
"X.	c #F0C89F",
"Y.	c #ECBC83",
"Z.	c #EBBA7E",
"`.	c #D7993B",
" +	c #CE9334",
".+	c #EACA97",
"++	c #EED1A2",
"@+	c #EDCE9B",
"#+	c #EBCA95",
"$+	c #E9C68F",
"%+	c #E6C084",
"&+	c #D7A85D",
"*+	c #B17A20",
"=+	c #915C04",
"-+	c #8F5C08",
";+	c #F3D8B1",
">+	c #ECBB81",
",+	c #EDBE8B",
"'+	c #EFC190",
")+	c #EFC495",
"!+	c #ECBB82",
"~+	c #E7B26F",
"{+	c #CE933D",
"]+	c #B47613",
"^+	c #A96E0E",
"/+	c #A46A0D",
"(+	c #9E660E",
"_+	c #99620E",
":+	c #96620C",
"<+	c #BD9149",
"[+	c #C3954C",
"}+	c #935C04",
"|+	c #936214",
"1+	c #F2D6AB",
"2+	c #EBB97B",
"3+	c #ECBD85",
"4+	c #EDC08B",
"5+	c #EEC28F",
"6+	c #EEBF8B",
"7+	c #EBB97C",
"8+	c #E8B166",
"9+	c #E6AD5C",
"0+	c #E5AA56",
"a+	c #E4A850",
"b+	c #DB9D43",
"c+	c #95610C",
"d+	c #C79B56",
"e+	c #915B03",
"f+	c #986A22",
"g+	c #F1D3A6",
"h+	c #EAB675",
"i+	c #EBB778",
"j+	c #EDBF89",
"k+	c #ECBA7F",
"l+	c #E9B46F",
"m+	c #E8B26B",
"n+	c #E7AF62",
"o+	c #E6AB57",
"p+	c #E5A952",
"q+	c #E4A74D",
"r+	c #E3A547",
"s+	c #B87E21",
"t+	c #905A03",
"u+	c #9F7431",
"v+	c #F1CFA0",
"w+	c #EAB879",
"x+	c #EBBB7F",
"y+	c #ECBC80",
"z+	c #EAB777",
"A+	c #E5A953",
"B+	c #E4A74E",
"C+	c #E3A549",
"D+	c #E3A343",
"E+	c #E2A240",
"F+	c #9C6813",
"G+	c #A88143",
"H+	c #EFCB98",
"I+	c #E8B269",
"J+	c #E9B46E",
"K+	c #E9B573",
"L+	c #EAB978",
"M+	c #E9B572",
"N+	c #E9B571",
"O+	c #E8B167",
"P+	c #E7B064",
"Q+	c #E7AE60",
"R+	c #E3A649",
"S+	c #E3A444",
"T+	c #A4701B",
"U+	c #724800",
"V+	c #B18E56",
"W+	c #EFC891",
"X+	c #E9B46D",
"Y+	c #E9B773",
"Z+	c #E7AE61",
"`+	c #E6AD5E",
" @	c #E6AC5A",
".@	c #E3A445",
"+@	c #AD7823",
"@@	c #8D5B09",
"#@	c #6F4402",
"$@	c #BC9D69",
"%@	c #EDC487",
"&@	c #E5AA54",
"*@	c #E5A851",
"=@	c #B8812B",
"-@	c #8E5B07",
";@	c #6D4705",
">@	c #C6AB7D",
",@	c #ECBF7E",
"'@	c #E7AF60",
")@	c #E5AB57",
"!@	c #E5A951",
"~@	c #E4A64B",
"{@	c #E2A343",
"]@	c #C48B32",
"^@	c #8F5B06",
"/@	c #6B460A",
"(@	c #D2B78D",
"_@	c #EABB74",
":@	c #E4A84F",
"<@	c #E5A954",
"[@	c #E6AD5A",
"}@	c #E5AA55",
"|@	c #E3A548",
"1@	c #E2A341",
"2@	c #CF9437",
"3@	c #8F5A05",
"4@	c #684309",
"5@	c #DDC49D",
"6@	c #EBC07F",
"7@	c #EFCE99",
"8@	c #F5DFBC",
"9@	c #F5DFBD",
"0@	c #F5E0BE",
"a@	c #F5DFBB",
"b@	c #F5DFBA",
"c@	c #F4DBB4",
"d@	c #F3D8AE",
"e@	c #F1D4A7",
"f@	c #F0D2A2",
"g@	c #F0CE9B",
"h@	c #EFCB94",
"i@	c #ECC88C",
"j@	c #EDC486",
"k@	c #ECC17E",
"l@	c #EABE78",
"m@	c #E9BB71",
"n@	c #E8B86B",
"o@	c #E8B366",
"p@	c #E7B15F",
"q@	c #E6AE58",
"r@	c #DFA54D",
"s@	c #613F06",
"t@	c #ECD6B1",
"u@	c #F3DAB2",
"v@	c #E4B46A",
"w@	c #D7962E",
"x@	c #D59025",
"y@	c #D69225",
"z@	c #D59023",
"A@	c #D58E23",
"B@	c #D58F23",
"C@	c #D48E23",
"D@	c #D48F23",
"E@	c #CC881E",
"F@	c #C08118",
"G@	c #B67814",
"H@	c #AA6E0F",
"I@	c #9E6609",
"J@	c #8F5D0C",
"K@	c #6F4F17",
"L@	c #F5DEBC",
"M@	c #E8C081",
"N@	c #E5BC7A",
"O@	c #FCF6EE",
"P@	c #FFFFFF",
"Q@	c #527AAE",
"R@	c #50729B",
"S@	c #EAD4AE",
"T@	c #D89731",
"U@	c #F9F0E1",
"V@	c #F2F2F1",
"W@	c #EEEEEC",
"X@	c #4370AB",
"Y@	c #808787",
"Z@	c #613D03",
"`@	c #715017",
" #	c #C1903F",
".#	c #E4B977",
"+#	c #FCF8F1",
"@#	c #688BB8",
"##	c #4A72A5",
"$#	c #5E3E08",
"%#	c #5D3C03",
"&#	c #5C3A01",
"*#	c #5F3F09",
"=#	c #868A84",
"-#	c #888C84",
";#	c #878B85",
"                                                                ",
"                                                                ",
"        . + + + + + @ # $ % & @ + + + + + + + + + + + +         ",
"        * = - ; > , ' ) ! ~ ~ { ] ^ / ( _ : < [ } | 1 2         ",
"        3 4 ; 5 6 7 8 9 0 a b c d e f g h i j k l m n @         ",
"        o p > 6 q r s t u v w x y z ^ A B C D E F G H I         ",
"        J K x L M N O P Q R S T c - U / ( V W X Y Z H `         ",
"         ..., 7 r +.@.#.$.%.&.*.=.- -.;.>._ ,.'.Y Z ).!.        ",
"      ~.{.].x L M s ^./.(._.q *.c - U ;.( _ W X Y Z ).:.        ",
"      <.[.}.> 6 &.|.1.%.2.r 3.x ; z 4.5.6.7.8.8.8.8.8.9.0.      ",
"      a.b.c.d.x e.f.9 g.h.L T =.i.j.k.l.m.n.o.p.q.q.r.s.t.      ",
"      u.v.j.d d.5 ' ) w.x., =.c.z 4./ y.z.A.B.C.q.q.r.D.E.      ",
"      F.G.^ j.- H.5 I.J.K.; i.] U L.g M.N.O.P.Q.q.q.r.D.R.S.    ",
"      T.U./ k.-.] V.W.X.- z e 4.L.Y.Z.`. +.+++@+#+$+%+&+*+=+    ",
"      -+;+>+A L.,+'+)+)+U ^ f / !+Z._ ~+{+]+^+/+(+_+:+<+[+}+    ",
"      |+1+2+B !+3+4+5+6+/ A g ( 7+V : j E 8+} 9+0+a+b+c+d+e+    ",
"      f+g+h+i+2+B 3+j+( k+Z.7+_ i W l+m+8+n+m o+p+q+r+s+t+#     ",
"      u+v+l+D : w+x+y+V C z+h+W j '.k Y } m H A+B+C+D+E+F+      ",
"      G+H+I+X J+K+L+i M+N+j l+X k O+P+Q+9+H A+B+R+S+E+E+T+      ",
"    U+V+W+l F O+X+Y+m+m+k I+[ Y P+Z+`+ @n p+B+R+.@E+E+E++@@@    ",
"    #@$@%@9+Z Q+8+k P+P+l n+} Z m  @H &@*@q+C+S+E+E+E+E+=@-@    ",
"    ;@>@,@0+H | } '@m m 9+|  @).)@&@!@B+~@r+{@E+E+E+E+E+]@^@    ",
"    /@(@_@:@!@<@[@n 0+0+}@}@A+p+a+B+~@|@.@1@E+E+E+E+E+E+2@3@    ",
"    4@5@6@7@8@9@0@a@a@a@b@c@d@e@f@g@h@i@j@k@l@m@n@o@p@q@r@@     ",
"    s@t@u@v@w@x@y@z@z@z@z@z@z@z@z@z@A@B@B@C@D@D@E@F@G@H@I@J@    ",
"    K@L@M@N@O@P@P@P@P@P@P@P@P@P@P@P@P@P@P@P@P@P@P@P@P@Q@R@      ",
"    s@S@T@U@P@P@P@P@V@W@W@W@W@W@W@W@W@V@P@P@V@W@W@W@W@X@Y@      ",
"    Z@`@ #.#+#P@P@P@P@P@P@P@P@P@P@P@P@P@P@P@P@P@P@P@P@@###      ",
"      $#%#&#&#&#&#&#&#&#&#&#&#&#&#&#&#&#&#&#&#&#&#&#&#&#&#*#    ",
"            =#-#-#-#-#-#-#-#-#-#-#-#-#-#-#-#-#-#-#-#-#;#        ",
"                                                                ",
"                                                                "};
